<svg version="1.0" xmlns="http://www.w3.org/2000/svg"
 width="421.000000pt" height="362.000000pt" viewBox="0 0 421.000000 362.000000"
 preserveAspectRatio="xMidYMid meet">

<g transform="translate(0.000000,362.000000) scale(0.100000,-0.100000)"
fill="#000000" stroke="none">
<path d="M1990 3574 c-334 -22 -629 -98 -905 -233 -825 -405 -1220 -1222 -970
-2011 35 -108 109 -267 170 -360 25 -40 44 -80 42 -89 -3 -9 -67 -160 -143
-336 -120 -279 -138 -327 -138 -375 -1 -82 43 -132 130 -146 34 -5 98 14 439
131 l399 136 106 -50 c205 -96 437 -164 675 -197 145 -20 445 -23 590 -5 869
107 1567 660 1749 1386 190 759 -213 1532 -999 1915 -302 148 -603 221 -955
233 -74 2 -160 3 -190 1z m328 -304 c581 -63 1064 -336 1348 -760 165 -248
242 -542 214 -817 -24 -230 -89 -415 -214 -602 -284 -425 -777 -702 -1355
-761 -382 -38 -764 32 -1118 205 -97 48 -142 65 -173 65 -26 0 -136 -33 -301
-91 -144 -50 -262 -89 -264 -87 -2 1 39 104 91 228 101 241 111 289 76 341 -9
14 -41 61 -70 105 -215 319 -274 734 -156 1091 102 306 305 564 603 764 371
250 860 368 1319 319z"/>
<path d="M2064 2829 c-42 -12 -91 -69 -100 -115 -15 -83 59 -173 144 -174 115
0 191 140 124 229 -42 56 -106 79 -168 60z"/>
<path d="M1736 2221 c-50 -33 -69 -74 -64 -136 3 -40 11 -62 29 -81 41 -44 71
-54 169 -54 l90 0 0 -445 0 -445 -87 0 c-64 0 -98 -5 -123 -18 -103 -51 -108
-204 -8 -259 30 -16 64 -18 368 -18 304 0 338 2 368 18 100 55 95 208 -8 259
-25 13 -59 18 -122 18 l-88 0 0 533 c0 593 2 577 -69 624 -32 22 -43 23 -230
23 -176 0 -199 -2 -225 -19z"/>
</g>
</svg>
